<svg width="20" height="22" viewBox="0 0 20 22" fill="none" xmlns="http://www.w3.org/2000/svg">
<path d="M19.186 5.44997C19.1661 5.44997 19.1363 5.44997 19.1064 5.44997C13.8406 4.92287 8.58481 4.72396 3.37873 5.25106L1.34807 5.44997C0.929994 5.48975 0.561689 5.19139 0.521872 4.77369C0.482055 4.35599 0.780681 3.99795 1.1888 3.95817L3.21946 3.75927C8.51513 3.22222 13.8804 3.43107 19.2557 3.95817C19.6638 3.99795 19.9625 4.36593 19.9226 4.77369C19.8928 5.16155 19.5643 5.44997 19.186 5.44997Z" fill="#CD1919"/>
<path d="M6.74401 4.44555C6.70419 4.44555 6.66437 4.44555 6.6146 4.4356C6.21644 4.36598 5.93772 3.97812 6.0074 3.5803L6.22639 2.27747C6.38566 1.32272 6.60465 0 8.92394 0H11.5319C13.8612 0 14.0802 1.37245 14.2295 2.28742L14.4485 3.5803C14.5182 3.98806 14.2395 4.37593 13.8413 4.4356C13.4332 4.50522 13.045 4.22675 12.9853 3.82894L12.7663 2.53605C12.6269 1.67081 12.597 1.50174 11.5419 1.50174H8.93389C7.87879 1.50174 7.85888 1.64097 7.70957 2.5261L7.48062 3.81899C7.42089 4.18697 7.10236 4.44555 6.74401 4.44555Z" fill="#CD1919"/>
<path d="M13.4232 21.3825H7.0326C3.55859 21.3825 3.41923 19.463 3.30973 17.9116L2.66271 7.89662C2.63284 7.48886 2.95138 7.13084 3.3595 7.10101C3.77758 7.08112 4.12597 7.38942 4.15584 7.79718L4.80286 17.8121C4.91236 19.3238 4.95217 19.8907 7.0326 19.8907H13.4232C15.5136 19.8907 15.5534 19.3238 15.653 17.8121L16.3 7.79718C16.3298 7.38942 16.6882 7.08112 17.0963 7.10101C17.5044 7.13084 17.823 7.47892 17.7931 7.89662L17.1461 17.9116C17.0366 19.463 16.8972 21.3825 13.4232 21.3825Z" fill="#CD1919"/>
<path d="M11.8803 15.9125H8.56555C8.15741 15.9125 7.81897 15.5744 7.81897 15.1666C7.81897 14.7589 8.15741 14.4207 8.56555 14.4207H11.8803C12.2884 14.4207 12.6269 14.7589 12.6269 15.1666C12.6269 15.5744 12.2884 15.9125 11.8803 15.9125Z" fill="#CD1919"/>
<path d="M12.7161 11.9344H7.739C7.33087 11.9344 6.99243 11.5962 6.99243 11.1885C6.99243 10.7807 7.33087 10.4426 7.739 10.4426H12.7161C13.1242 10.4426 13.4627 10.7807 13.4627 11.1885C13.4627 11.5962 13.1242 11.9344 12.7161 11.9344Z" fill="#CD1919"/>
</svg>
