<svg width="20" height="19" viewBox="0 0 20 19" fill="none" xmlns="http://www.w3.org/2000/svg">
<path fill-rule="evenodd" clip-rule="evenodd" d="M8.4734 0.415711C8.93503 0.143545 9.46113 0 9.99703 0C10.5329 0 11.059 0.143545 11.5207 0.415711C11.9791 0.686016 12.3574 1.07339 12.6167 1.53803L19.7122 13.7803C19.7358 13.8209 19.7564 13.8632 19.774 13.9067C19.9576 14.3605 20.0274 14.8523 19.9772 15.3391C19.9271 15.826 19.7585 16.2933 19.4864 16.7001C19.2142 17.1069 18.8466 17.4409 18.4156 17.673C17.9847 17.9052 17.5035 18.0283 17.014 18.0317L17.007 18.0318H3.00703C2.98875 18.0318 2.97058 18.0313 2.95255 18.0303C2.91729 18.0322 2.88159 18.0323 2.84554 18.0304C2.36763 18.0058 1.90256 17.8672 1.48913 17.6262C1.07571 17.3852 0.725934 17.0488 0.469016 16.645C0.212098 16.2413 0.0554896 15.782 0.0122642 15.3054C-0.0309612 14.8288 0.0404511 14.3488 0.220539 13.9054C0.238039 13.8623 0.258523 13.8205 0.281842 13.7803L7.37735 1.53805C7.63665 1.0734 8.01491 0.686021 8.4734 0.415711ZM2.95178 16.0333C2.97007 16.0323 2.98849 16.0318 3.00703 16.0318H9.00703V2.71469L2.05328 14.7123C2.00827 14.8446 1.99143 14.9851 2.00409 15.1247C2.0185 15.2836 2.0707 15.4367 2.15634 15.5713C2.24198 15.7059 2.35857 15.818 2.49638 15.8983C2.63418 15.9787 2.78921 16.0249 2.94851 16.0331C2.9496 16.0331 2.95069 16.0332 2.95178 16.0333ZM11.007 2.7492V16.0318H17.0029C17.1651 16.0301 17.3244 15.9891 17.4672 15.9122C17.6109 15.8348 17.7334 15.7235 17.8241 15.5879C17.9148 15.4523 17.971 15.2966 17.9877 15.1343C18.0024 14.9914 17.9862 14.8473 17.9404 14.7116L11.007 2.7492Z" fill="black"/>
</svg>
