<svg width="20" height="22" viewBox="0 0 20 22" fill="none" xmlns="http://www.w3.org/2000/svg">
<path d="M3.72363 17.9262C3.12927 17.9262 2.57388 17.7216 2.1744 17.342C1.66773 16.865 1.42414 16.1446 1.51183 15.3658L1.87235 12.2117C1.94055 11.6179 2.30106 10.8294 2.72004 10.401L10.7195 1.94148C12.717 -0.170992 14.8021 -0.229401 16.9165 1.76625C19.0308 3.7619 19.0893 5.84516 17.0918 7.95762L9.09236 16.4172C8.68313 16.8552 7.92312 17.2641 7.32876 17.3616L4.19132 17.8969C4.02568 17.9066 3.87953 17.9262 3.72363 17.9262ZM13.8472 1.75651C13.097 1.75651 12.4442 2.22379 11.7816 2.9247L3.78209 11.3941C3.58722 11.5985 3.36312 12.0853 3.32414 12.3676L2.96363 15.5216C2.92465 15.8428 3.0026 16.1057 3.17799 16.2712C3.35337 16.4366 3.61645 16.4951 3.93799 16.4464L7.07542 15.9111C7.35799 15.8624 7.82568 15.6092 8.02055 15.4047L16.02 6.9452C17.2283 5.6602 17.6667 4.47254 15.9031 2.81761C15.1236 2.06803 14.4513 1.75651 13.8472 1.75651Z" fill="#1A56DB"/>
<path d="M15.2214 9.58305C15.202 9.58305 15.1727 9.58305 15.1532 9.58305C12.1132 9.28127 9.66759 6.97415 9.1999 3.95634C9.14144 3.55721 9.41426 3.18729 9.81375 3.11914C10.2132 3.06074 10.5835 3.33331 10.6517 3.73244C11.022 6.08828 12.9317 7.89896 15.3091 8.1326C15.7086 8.17154 16.0009 8.53173 15.962 8.93081C15.9132 9.30074 15.5917 9.58305 15.2214 9.58305Z" fill="#1A56DB"/>
<path d="M18.7875 21.0705H1.24908C0.849593 21.0705 0.518311 20.7395 0.518311 20.3403C0.518311 19.9412 0.849593 19.6102 1.24908 19.6102H18.7875C19.187 19.6102 19.5183 19.9412 19.5183 20.3403C19.5183 20.7395 19.187 21.0705 18.7875 21.0705Z" fill="#1A56DB"/>
</svg>
