<svg width="25" height="22" viewBox="0 0 25 22" fill="none" xmlns="http://www.w3.org/2000/svg">
<path d="M23.5989 7.20348C20.7671 2.75339 16.6235 0.191223 12.2592 0.191223C10.0771 0.191223 7.95621 0.828701 6.01926 2.01784C4.08231 3.21924 2.3415 4.97231 0.919439 7.20348C-0.30648 9.12818 -0.30648 12.2543 0.919439 14.179C3.75131 18.6413 7.89492 21.1912 12.2592 21.1912C14.4413 21.1912 16.5622 20.5537 18.4991 19.3646C20.4361 18.1632 22.1769 16.4101 23.5989 14.179C24.8249 12.2665 24.8249 9.12818 23.5989 7.20348ZM12.2592 15.6501C9.51313 15.6501 7.30648 13.4312 7.30648 10.6974C7.30648 7.96355 9.51313 5.74464 12.2592 5.74464C15.0052 5.74464 17.2119 7.96355 17.2119 10.6974C17.2119 13.4312 15.0052 15.6501 12.2592 15.6501Z" fill="#303030"/>
<path d="M12.2572 7.19232C10.3326 7.19232 8.76343 8.76147 8.76343 10.6984C8.76343 12.6231 10.3326 14.1923 12.2572 14.1923C14.1819 14.1923 15.7634 12.6231 15.7634 10.6984C15.7634 8.77373 14.1819 7.19232 12.2572 7.19232Z" fill="#303030"/>
</svg>
