<svg width="27" height="41" viewBox="0 0 27 41" fill="none" xmlns="http://www.w3.org/2000/svg">
<path id="Vector" d="M16.7148 3.00352L13.9294 17.844L24.0201 17.8785L10.2848 37.997L13.0702 21.6701L2.98013 21.6344L16.7148 3.00352ZM16.7167 0.500001C16.65 0.500001 16.5834 0.502465 16.518 0.507433C16.0823 0.543148 15.7934 0.690858 15.4508 0.924315C15.258 1.05471 15.0841 1.21188 14.9342 1.39123C14.8892 1.44506 14.8468 1.50103 14.8071 1.55897L0.973587 20.1247C0.427358 20.8839 0.347121 21.886 0.766822 22.7235C1.18591 23.5609 2.03333 24.0917 2.96223 24.0986L10.0885 24.1511L7.84804 37.537C7.63511 38.6874 8.23997 39.8341 9.30465 40.296C9.61406 40.4308 9.94735 40.5002 10.2841 40.5C11.06 40.5 11.6975 40.132 12.1759 39.4673L26.0267 19.3486C26.5729 18.5894 26.6525 17.5861 26.2334 16.7499C25.8143 15.9125 24.9669 15.3817 24.038 15.3748L16.9117 15.3623L19.1281 3.59244C19.1751 3.39975 19.1987 3.20197 19.1985 3.00348C19.1985 1.64906 18.135 0.544987 16.8043 0.501175C16.7748 0.499923 16.7457 0.500001 16.7167 0.500001Z" fill="#3579F6"/>
</svg>
