<svg width="27" height="41" viewBox="0 0 27 41" fill="none" xmlns="http://www.w3.org/2000/svg">
<path d="M22.7328 13.875V13.475H22.3328H4.66618H4.26618V13.875V24.1437V24.3088L4.38253 24.4258L11.9953 32.0821V35.9583V36.3583H12.3953H14.6037H15.0037V35.9583V32.0824L22.6161 24.4483L22.7328 24.3312V24.1658V13.875ZM5.06618 9.45833V1.025H8.68285V9.45833V9.85833H9.08284H17.9162H18.3162V9.45833V1.025H21.9328V9.45833V9.85833H22.3328C24.5411 9.85833 26.3495 11.6667 26.3495 13.875V25.8334L18.7371 33.4676L18.6203 33.5846V33.75V39.975H8.37868V33.75V33.5843L8.26152 33.4672L0.649512 25.8551V13.8308C0.649512 11.6439 2.45784 9.83829 4.64042 9.85832V9.85833H4.64409H4.66618H5.06618V9.45833Z" fill="#3579F6" stroke="white" stroke-width="0.8"/>
</svg>
