<svg width="37" height="27" viewBox="0 0 37 27" fill="none" xmlns="http://www.w3.org/2000/svg">
<rect width="37" height="27" fill="#C3C0C0"/>
<g clip-path="url(#clip0_84_2)">
<rect width="1920" height="1740" transform="translate(-1544 -264)" fill="#F4F6F9"/>
<rect x="-26" y="-35" width="382" height="97" rx="8" fill="white"/>
<path d="M1.61108 22.0714V4.92857C1.61108 4.01926 2.0065 3.14719 2.71034 2.50421C3.41418 1.86122 4.36879 1.5 5.36417 1.5H31.6358C32.6312 1.5 33.5858 1.86122 34.2896 2.50421C34.9934 3.14719 35.3889 4.01926 35.3889 4.92857V22.0714C35.3889 22.9807 34.9934 23.8528 34.2896 24.4958C33.5858 25.1388 32.6312 25.5 31.6358 25.5H5.36417C4.36879 25.5 3.41418 25.1388 2.71034 24.4958C2.0065 23.8528 1.61108 22.9807 1.61108 22.0714Z" stroke="#3579F6" stroke-width="2.5"/>
<path d="M18.9172 7.78571L16 14.6429H23L20.0828 21.5M9 5.5H10.75" stroke="#3579F6" stroke-width="2.5" stroke-linecap="round" stroke-linejoin="round"/>
</g>
<defs>
<clipPath id="clip0_84_2">
<rect width="1920" height="1740" fill="white" transform="translate(-1544 -264)"/>
</clipPath>
</defs>
</svg>
