<svg width="30" height="28" viewBox="0 0 30 28" fill="none" xmlns="http://www.w3.org/2000/svg">
<path d="M2 4.66667C2 3.95942 2.27393 3.28115 2.76152 2.78105C3.24912 2.28095 3.91044 2 4.6 2H12.4V26H4.6C3.91044 26 3.24912 25.719 2.76152 25.219C2.27393 24.7189 2 24.0406 2 23.3333V4.66667ZM17.6 2H25.4C26.0896 2 26.7509 2.28095 27.2385 2.78105C27.7261 3.28115 28 3.95942 28 4.66667V11.3333H17.6V2ZM17.6 16.6667H28V23.3333C28 24.0406 27.7261 24.7189 27.2385 25.219C26.7509 25.719 26.0896 26 25.4 26H17.6V16.6667Z" stroke="#4E67EB" stroke-width="3" stroke-linecap="round" stroke-linejoin="round"/>
</svg>
