<svg width="22" height="22" viewBox="0 0 22 22" fill="none" xmlns="http://www.w3.org/2000/svg">
<path d="M13 2.6V8.4C13 8.7314 13.2686 9 13.6 9H19.4C19.7314 9 20 8.7314 20 8.4V2.6C20 2.2686 19.7314 2 19.4 2H13.6C13.2686 2 13 2.2686 13 2.6Z" stroke="#7280FF" stroke-width="2.5"/>
<path d="M2 2.6V8.4C2 8.7314 2.26863 9 2.6 9H8.4C8.73137 9 9 8.7314 9 8.4V2.6C9 2.2686 8.73137 2 8.4 2H2.6C2.26863 2 2 2.2686 2 2.6Z" stroke="#7280FF" stroke-width="2.5"/>
<path d="M13 13.6V19.4C13 19.7314 13.2686 20 13.6 20H19.4C19.7314 20 20 19.7314 20 19.4V13.6C20 13.2686 19.7314 13 19.4 13H13.6C13.2686 13 13 13.2686 13 13.6Z" stroke="#7280FF" stroke-width="2.5"/>
<path d="M2 13.6V19.4C2 19.7314 2.26863 20 2.6 20H8.4C8.73137 20 9 19.7314 9 19.4V13.6C9 13.2686 8.73137 13 8.4 13H2.6C2.26863 13 2 13.2686 2 13.6Z" stroke="#7280FF" stroke-width="2.5"/>
</svg>
