<svg width="41" height="39" viewBox="0 0 41 39" fill="none" xmlns="http://www.w3.org/2000/svg">
<path id="Vector" d="M28.7 12.9H29.1V12.5V9.9H36.5V12.5V12.9H36.9H38.95C39.866 12.9 40.6 13.6302 40.6 14.5V36.5C40.6 37.3698 39.866 38.1 38.95 38.1H26.65C25.734 38.1 25 37.3698 25 36.5V14.5C25 13.6302 25.734 12.9 26.65 12.9H28.7ZM28.7 16.1H28.3V16.5V22.5V22.9H28.7H36.9H37.3V22.5V16.5V16.1H36.9H28.7ZM20.7635 5.57909L20.4997 5.34798L20.2361 5.57942L9.98608 14.5794L9.85 14.6989V14.88V30.5V30.9H10.25H20.1V34.1H6.55V18.5V18.1H6.15H1.0618L20.5001 1.03222L25.1366 5.1H24.6H24.2V5.5V8.57082L24.1859 8.57653L20.7635 5.57909Z" fill="#3579F6" stroke="white" stroke-width="0.8"/>
</svg>
